<svg width="456" height="133" viewBox="0 0 456 133" fill="none" xmlns="http://www.w3.org/2000/svg">
<path fill-rule="evenodd" clip-rule="evenodd" d="M443.576 100.909C462.29 79.6674 460.242 47.2768 439 28.5624C417.759 9.84803 380.425 9.56188 366.894 32.1149C390.898 58.9632 380.541 73.1803 372.515 84.1978C366.989 91.784 362.568 97.8533 371.23 105.485C392.471 124.199 424.862 122.15 443.576 100.909ZM404.5 79C410.851 79 416 73.8513 416 67.5C416 61.1487 410.851 56 404.5 56C398.149 56 393 61.1487 393 67.5C393 73.8513 398.149 79 404.5 79Z" fill="#273AA7" fill-opacity="0.4"/>
<path d="M57.24 0.760119V58.1201C57.24 67.0001 54.72 73.8401 49.68 78.6401C44.72 83.4401 38 85.8401 29.52 85.8401C20.64 85.8401 13.52 83.3201 8.16 78.2801C2.8 73.2401 0.12 66.0801 0.12 56.8001H20.52C20.52 60.3201 21.24 63.0001 22.68 64.8401C24.12 66.6001 26.2 67.4801 28.92 67.4801C31.4 67.4801 33.32 66.6801 34.68 65.0801C36.04 63.4801 36.72 61.1601 36.72 58.1201V0.760119H57.24ZM102.855 85.8401C94.935 85.8401 87.655 84.0001 81.015 80.3201C74.455 76.6401 69.215 71.5201 65.295 64.9601C61.455 58.3201 59.535 50.8801 59.535 42.6401C59.535 34.4001 61.455 27.0001 65.295 20.4401C69.215 13.8801 74.455 8.76012 81.015 5.08012C87.655 1.40012 94.935 -0.439879 102.855 -0.439879C110.775 -0.439879 118.015 1.40012 124.575 5.08012C131.215 8.76012 136.415 13.8801 140.175 20.4401C144.015 27.0001 145.935 34.4001 145.935 42.6401C145.935 50.8801 144.015 58.3201 140.175 64.9601C136.335 71.5201 131.135 76.6401 124.575 80.3201C118.015 84.0001 110.775 85.8401 102.855 85.8401ZM102.855 67.1201C109.575 67.1201 114.935 64.8801 118.935 60.4001C123.015 55.9201 125.055 50.0001 125.055 42.6401C125.055 35.2001 123.015 29.2801 118.935 24.8801C114.935 20.4001 109.575 18.1601 102.855 18.1601C96.055 18.1601 90.615 20.3601 86.535 24.7601C82.535 29.1601 80.535 35.1201 80.535 42.6401C80.535 50.0801 82.535 56.0401 86.535 60.5201C90.615 64.9201 96.055 67.1201 102.855 67.1201ZM219.511 0.760119V85.0001H198.991V50.3201H167.071V85.0001H146.551V0.760119H167.071V33.7601H198.991V0.760119H219.511ZM298.884 85.0001H278.364L244.044 33.0401V85.0001H223.524V0.760119H244.044L278.364 52.9601V0.760119H298.884V85.0001ZM333.439 85.8401C327.279 85.8401 321.759 84.8401 316.879 82.8401C311.999 80.8401 308.079 77.8801 305.119 73.9601C302.239 70.0401 300.719 65.3201 300.559 59.8001H322.399C322.719 62.9201 323.799 65.3201 325.639 67.0001C327.479 68.6001 329.879 69.4001 332.839 69.4001C335.879 69.4001 338.279 68.7201 340.039 67.3601C341.799 65.9201 342.679 63.9601 342.679 61.4801C342.679 59.4001 341.959 57.6801 340.519 56.3201C339.159 54.9601 337.439 53.8401 335.359 52.9601C333.359 52.0801 330.479 51.0801 326.719 49.9601C321.279 48.2801 316.839 46.6001 313.399 44.9201C309.959 43.2401 306.999 40.7601 304.519 37.4801C302.039 34.2001 300.799 29.9201 300.799 24.6401C300.799 16.8001 303.639 10.6801 309.319 6.28012C314.999 1.80012 322.399 -0.439879 331.519 -0.439879C340.799 -0.439879 348.279 1.80012 353.959 6.28012C359.639 10.6801 362.679 16.8401 363.079 24.7601H340.879C340.719 22.0401 339.719 19.9201 337.879 18.4001C336.039 16.8001 333.679 16.0001 330.799 16.0001C328.319 16.0001 326.319 16.6801 324.799 18.0401C323.279 19.3201 322.519 21.2001 322.519 23.6801C322.519 26.4001 323.799 28.5201 326.359 30.0401C328.919 31.5601 332.919 33.2001 338.359 34.9601C343.799 36.8001 348.199 38.5601 351.559 40.2401C354.999 41.9201 357.959 44.3601 360.439 47.5601C362.919 50.7601 364.159 54.8801 364.159 59.9201C364.159 64.7201 362.919 69.0801 360.439 73.0001C358.039 76.9201 354.519 80.0401 349.879 82.3601C345.239 84.6801 339.759 85.8401 333.439 85.8401ZM55.517 92.2841V133H45.599V108.582L36.493 133H28.489L19.325 108.524V133H9.40702V92.2841H21.123L32.549 120.472L43.859 92.2841H55.517ZM68.9132 92.2841V116.644C68.9132 119.08 69.5125 120.955 70.7112 122.27C71.9099 123.585 73.6692 124.242 75.9892 124.242C78.3092 124.242 80.0879 123.585 81.3252 122.27C82.5625 120.955 83.1812 119.08 83.1812 116.644V92.2841H93.0992V116.586C93.0992 120.221 92.3259 123.295 90.7792 125.808C89.2325 128.321 87.1445 130.216 84.5152 131.492C81.9245 132.768 79.0245 133.406 75.8152 133.406C72.6059 133.406 69.7252 132.787 67.1732 131.55C64.6599 130.274 62.6685 128.379 61.1992 125.866C59.7299 123.314 58.9952 120.221 58.9952 116.586V92.2841H68.9132ZM107.14 124.88H124.656V133H95.8877V125.46L113.288 100.404H95.8877V92.2841H124.656V99.8241L107.14 124.88ZM137.573 92.2841V133H127.655V92.2841H137.573ZM151.198 100.23V108.466H164.48V116.122H151.198V125.054H166.22V133H141.28V92.2841H166.22V100.23H151.198ZM192.785 133L179.097 115.02V133H169.179V92.2841H179.097V110.148L192.669 92.2841H204.327L188.551 112.236L204.907 133H192.785ZM230.79 112.12C233.149 112.623 235.044 113.802 236.474 115.658C237.905 117.475 238.62 119.563 238.62 121.922C238.62 125.325 237.422 128.031 235.024 130.042C232.666 132.014 229.36 133 225.106 133H206.14V92.2841H224.468C228.606 92.2841 231.834 93.2315 234.154 95.1261C236.513 97.0208 237.692 99.5921 237.692 102.84C237.692 105.237 237.054 107.229 235.778 108.814C234.541 110.399 232.878 111.501 230.79 112.12ZM216.058 108.756H222.554C224.178 108.756 225.416 108.408 226.266 107.712C227.156 106.977 227.6 105.914 227.6 104.522C227.6 103.13 227.156 102.067 226.266 101.332C225.416 100.597 224.178 100.23 222.554 100.23H216.058V108.756ZM223.366 124.996C225.029 124.996 226.305 124.629 227.194 123.894C228.122 123.121 228.586 122.019 228.586 120.588C228.586 119.157 228.103 118.036 227.136 117.224C226.208 116.412 224.913 116.006 223.25 116.006H216.058V124.996H223.366ZM260.149 133.406C256.321 133.406 252.802 132.517 249.593 130.738C246.422 128.959 243.889 126.485 241.995 123.314C240.139 120.105 239.211 116.509 239.211 112.526C239.211 108.543 240.139 104.967 241.995 101.796C243.889 98.6255 246.422 96.1508 249.593 94.3721C252.802 92.5935 256.321 91.7041 260.149 91.7041C263.977 91.7041 267.476 92.5935 270.647 94.3721C273.856 96.1508 276.369 98.6255 278.187 101.796C280.043 104.967 280.971 108.543 280.971 112.526C280.971 116.509 280.043 120.105 278.187 123.314C276.331 126.485 273.817 128.959 270.647 130.738C267.476 132.517 263.977 133.406 260.149 133.406ZM260.149 124.358C263.397 124.358 265.987 123.275 267.921 121.11C269.893 118.945 270.879 116.083 270.879 112.526C270.879 108.93 269.893 106.069 267.921 103.942C265.987 101.777 263.397 100.694 260.149 100.694C256.862 100.694 254.233 101.757 252.261 103.884C250.327 106.011 249.361 108.891 249.361 112.526C249.361 116.122 250.327 119.003 252.261 121.168C254.233 123.295 256.862 124.358 260.149 124.358ZM292.926 100.23V108.466H306.208V116.122H292.926V125.054H307.948V133H283.008V92.2841H307.948V100.23H292.926ZM340.197 92.2841V100.23H329.409V133H319.491V100.23H308.703V92.2841H340.197ZM351.613 92.2841V133H341.695V92.2841H351.613ZM365.238 100.23V108.466H378.52V116.122H365.238V125.054H380.26V133H355.32V92.2841H380.26V100.23H365.238ZM406.825 133L393.137 115.02V133H383.219V92.2841H393.137V110.148L406.709 92.2841H418.367L402.591 112.236L418.947 133H406.825Z" fill="#273AA7"/>
</svg>
